<?xml version="1.0" ?><svg data-name="Layer 5" id="Layer_5" viewBox="0 0 32 32" xmlns="http://www.w3.org/2000/svg"><defs><style>.cls-1{fill:#fff;}.cls-2{fill:#ffbbbc;}.cls-3{fill:#361041;}.cls-4{fill:#f41870;}</style></defs><polygon class="cls-1" points="4.94 3.57 5.52 17.76 7.01 29.82 28.43 30.02 27.84 24.73 27.08 7.43 22.86 2.71 4.94 3.57"/><polygon class="cls-2" points="22.74 2.57 20.91 8.49 21.18 8.78 22.16 8.66 26.92 7.33 22.74 2.57"/><path class="cls-3" d="M11.19,8.52c.2,0,1-.24,1.14-.12s.21,1.6.24,1.84a7.83,7.83,0,0,0,.26,1.89c.23.51.52.48.55-.12a25.83,25.83,0,0,0-.53-3.66c.38,0,1.78,0,1.9-.38.18-.58-1.2-.18-1.3-.18h-.07c-.61.08-1.42.13-2.09.23-.27,0-1.32.09-1.27.5S11,8.55,11.19,8.52Z"/><path class="cls-3" d="M19.72,9.42a2.48,2.48,0,0,0-2.45-2.2c-1.58.09-2.21,2.13-1.84,3.44C16.25,13.6,20.07,12.07,19.72,9.42Zm-4,0A2.92,2.92,0,0,1,16.4,8.1c1-1.14,2.73.35,2.75,1.47s-.68,2.42-1.87,2.27A2.1,2.1,0,0,1,15.76,9.45Z"/><path class="cls-3" d="M13.37,19.33a2.77,2.77,0,0,0,2.68-2.84,2.7,2.7,0,0,0-2.61-2.41c-.4-.05-1.3-.1-1.58.28s.08,1.88.16,2.38C12.2,17.84,11.81,19.54,13.37,19.33Zm-1-4.63c.35-.36,1.78,0,2.14.18a2,2,0,0,1-.28,3.71s-1.17.49-1.44.27-.17-1.65-.21-2S12.13,14.92,12.34,14.7Z"/><path class="cls-3" d="M18.74,19c2.68-.1,2.64-5.62-.06-5.47S15.87,19.09,18.74,19Zm.31-4.81c1.58.82,1.48,4.74-.72,4.23S17.18,13.38,19.05,14.17Z"/><path class="cls-3" d="M18.75,20.56a2.43,2.43,0,0,0-1.86,1.83C16.19,21,13.73,20,13,21.83s1.59,3.51,2.75,4.66c.22.21.64.78.92.87.49.14.79-.54,1.07-.89,1-1.31,3.45-3.12,2.61-5A1.52,1.52,0,0,0,18.75,20.56Z"/><path class="cls-3" d="M4.32,13.73c.11,1.29.2,2.59.33,3.88.06.64.1,1.28.17,1.91,0,.36.08.7.11,1.05,0,.11.11,1.08.06.52.14,1.61.42,3.2.59,4.81a23.64,23.64,0,0,0,.6,4c.31,1.07,1.93.78,2.87.81,1.47,0,2.95.13,4.43.1,3.15-.07,6.28-.07,9.43-.06,1.49,0,3,0,4.47.08.45,0,1.18.24,1.58-.06s.26-1.17.21-1.67c-.26-3-.59-6-.74-9.06s-.24-6.46-.49-9.49a17.73,17.73,0,0,1-.1-1.79,7.68,7.68,0,0,0,0-1.66c-.25-1-1.53-2-2.2-2.78s-1.33-1.83-2.17-2.23S21.12,1.93,20.15,2c-2.92.1-6,.36-9.14.56-1.59.11-3.19.19-4.78.33-.91.08-2.35-.2-2.23,1C4.07,4.51,4,5.28,4,6,4.08,8.54,4.12,11.14,4.32,13.73ZM26,7.38c-1.58.22-3.2,1.23-4.81,1.1.33-1.67,1-3.27,1.5-4.91C23.79,4.85,24.78,6.18,26,7.38ZM17.36,3.77c1.6-.13,3.22-.24,4.82-.29-.28,1-.56,1.94-.87,2.9-.18.56-1,2.08-.41,2.52s1.84-.12,2.35-.25c1-.27,2-.64,3-.85a81.39,81.39,0,0,0,.23,11.37c.15,1.62.38,3.38.58,5.17.16,1.47.26,3.31.58,5-1.5-.09-3,0-4.48,0s-3.1-.17-4.65-.25c-3.06-.14-6.12,0-9.19-.13L8.2,28.84c-.51,0-.57.1-.71-.37a13.62,13.62,0,0,1-.27-2.31c-.15-1.41-.29-2.82-.47-4.23-.35-2.91-.48-5.8-.7-8.75-.22-2.75-.34-5.83-.53-8.71C9.49,4.45,13.4,4.15,17.36,3.77Z"/><path class="cls-4" d="M16.77,26.07c-.38,0-3.75-3.11-2.57-4s2.34,1.63,2.73,1.71,1.24-3.13,2.35-2.06S17.15,26.07,16.77,26.07Z"/></svg>